<?xml version="1.0" encoding="UTF-8" standalone="no"?>
<!-- Created with Inkscape (http://www.inkscape.org/) -->

<svg
   width="80"
   height="80"
   viewBox="0 0 21.166666 21.166666"
   version="1.1"
   id="svg446"
   inkscape:version="1.2.2 (b0a8486541, 2022-12-01)"
   sodipodi:docname="eixo-1.svg"
   xmlns:inkscape="http://www.inkscape.org/namespaces/inkscape"
   xmlns:sodipodi="http://sodipodi.sourceforge.net/DTD/sodipodi-0.dtd"
   xmlns="http://www.w3.org/2000/svg"
   xmlns:svg="http://www.w3.org/2000/svg">
  <sodipodi:namedview
     id="namedview448"
     pagecolor="#ffffff"
     bordercolor="#000000"
     borderopacity="0.25"
     inkscape:showpageshadow="2"
     inkscape:pageopacity="0.0"
     inkscape:pagecheckerboard="0"
     inkscape:deskcolor="#d1d1d1"
     inkscape:document-units="mm"
     showgrid="false"
     inkscape:zoom="0.50422278"
     inkscape:cx="130.89452"
     inkscape:cy="561.25984"
     inkscape:window-width="1366"
     inkscape:window-height="744"
     inkscape:window-x="0"
     inkscape:window-y="0"
     inkscape:window-maximized="1"
     inkscape:current-layer="layer1" />
  <defs
     id="defs443" />
  <g
     inkscape:label="Layer 1"
     inkscape:groupmode="layer"
     id="layer1">
    <g
       id="g17815"
       transform="matrix(0.35,0,0,0.35,29.675164,9.3444405)">
      <rect
         style="fill:#800080;fill-opacity:1;fill-rule:evenodd;stroke-width:0.242487"
         id="rect15694"
         width="60"
         height="60"
         x="-84.548088"
         y="-26.460306"
         ry="13.490163" />
      <path
         style="fill:#ff00ff;fill-opacity:1;stroke-width:0.264583"
         d="m -57.852781,27.281776 v -2.513542 h -1.151813 c -0.633498,0 -1.883654,-0.07649 -2.778125,-0.169984 l -1.626312,-0.169982 v -2.872726 -2.872724 h 2.778125 2.778125 l -8.47e-4,-4.431771 -8.47e-4,-4.4317707 -1.071113,-1.5874997 c -1.97351,-2.924945 -1.960835,-2.877002 -1.15301,-4.36124 0.389218,-0.715123 0.997837,-1.572821 1.352488,-1.905998 l 0.644819,-0.605776 1.70175,0.909232 c 0.935972,0.500076 1.70176,1.045786 1.70176,1.212686 0,0.638373 -1.023146,1.252405 -1.820971,1.09284 -1.048705,-0.20974 -1.401321,0.572651 -0.511332,1.134555 0.95667,0.604004 2.596886,2.372145 2.596886,2.799426 0,0.706014 0.460604,0.39782 0.623622,-0.417274 0.158137,-0.790684 0.172259,-0.796981 0.920155,-0.410229 0.734138,0.379638 0.789151,0.362244 1.644165,-0.519908 0.486537,-0.501979 0.980319,-0.912689 1.097294,-0.912689 0.459664,0 0.169664,1.168826 -0.713361,2.875151 l -0.926042,1.7894504 v 3.885406 3.885409 h 2.645834 2.645833 v 2.910416 2.910417 h -2.645833 -2.645834 v 2.645833 2.645833 h -3.042708 -3.042708 z m -2.653315,-14.916404 c -5.269737,-1.686655 -9.498014,-5.9295924 -11.256659,-11.2956894 -0.697976,-2.1297109 -0.773631,-2.7023559 -0.766594,-5.802489 0.0066,-2.893296 0.103959,-3.712726 0.613205,-5.159374 0.938722,-2.6666836 2.592517,-5.2487476 4.660257,-7.2760426 2.1738,-2.13128 4.050871,-3.319302 6.800949,-4.304408 1.734106,-0.621174 2.335017,-0.696641 5.644865,-0.708926 3.236686,-0.01201 3.92004,0.06415 5.414681,0.603533 3.628216,1.309332 6.84551,3.671635 8.876158,6.517333 3.757583,5.2657846 4.532358,11.2990446 2.238351,17.4303286 -1.69192,4.522064 -6.191708,8.7089544 -10.822525,10.0699794 -2.264803,0.665639 -2.369467,0.627978 -2.110289,-0.759336 0.121421,-0.649935 0.532956,-1.653455 0.914522,-2.2300374 0.381565,-0.576585 0.759371,-1.537536 0.839568,-2.135446 0.12858,-0.958636 0.313053,-1.198121 1.560945,-2.026425 2.467483,-1.637822 4.074145,-4.217055 4.778537,-7.671158 0.919943,-4.511089 -0.77238,-8.8673126 -4.523333,-11.6435596 -2.056837,-1.522356 -3.576753,-2.146001 -5.767398,-2.366451 -6.473086,-0.651406 -12.268089,3.785594 -13.155307,10.0724896 -0.602813,4.2715861 0.790274,8.055741 3.965798,10.772614 0.728757,0.623498 1.607221,1.609886 1.952141,2.191969 0.344921,0.582084 0.995937,1.52119 1.446702,2.086901 0.706211,0.8862987 0.819574,1.2431207 0.819574,2.5796874 0,1.756822 0.0275,1.743173 -2.124148,1.054507 z m 7.801888,-5.6228364 c -0.139761,-0.440349 0.0836,-0.825551 1.023963,-1.765917 1.026381,-1.026379 1.263329,-1.152411 1.616132,-0.85961 0.692792,0.574966 0.4689,1.25575 -0.738314,2.244971 -1.332981,1.092277 -1.655411,1.156798 -1.901781,0.380556 z m -1.271108,-0.978988 c -0.240835,-0.26612 -0.437882,-0.568859 -0.437882,-0.672756 0,-0.430776 2.163548,-3.076723 2.515788,-3.076723 0.210337,0 0.57946,0.300707 0.820276,0.668238 0.485332,0.740711 0.502749,0.705267 -1.329259,2.7052 -0.916848,1.000889 -0.988008,1.017944 -1.568923,0.376041 z m -0.437882,-2.185715 c 0,-0.304095 -0.249231,-0.754716 -0.553847,-1.001379 l -0.553847,-0.448478 0.576944,-0.977846 c 0.572665,-0.97059494 0.582758,-0.97483894 1.361209,-0.57228597 1.129152,0.58390697 1.170521,0.99217697 0.237887,2.34771397 -0.93345,1.356723 -1.068346,1.439083 -1.068346,0.652275 z m -2.315104,-1.773592 c -0.989677,-0.47803 -1.024402,-0.620664 -0.405975,-1.66757794 0.504919,-0.85475996 1.391118,-1.01764596 1.939788,-0.35653996 0.283084,0.34109496 0.254546,0.58612796 -0.166041,1.4256739 l -0.507876,1.013787 z"
         id="path15552" />
    </g>
  </g>
</svg>
