<?xml version="1.0" encoding="UTF-8" standalone="no"?>
<!-- Created with Inkscape (http://www.inkscape.org/) -->

<svg
   width="80"
   height="80"
   viewBox="0 0 21.166666 21.166666"
   version="1.1"
   id="svg446"
   inkscape:version="1.2.2 (b0a8486541, 2022-12-01)"
   sodipodi:docname="eixo-4.svg"
   xmlns:inkscape="http://www.inkscape.org/namespaces/inkscape"
   xmlns:sodipodi="http://sodipodi.sourceforge.net/DTD/sodipodi-0.dtd"
   xmlns="http://www.w3.org/2000/svg"
   xmlns:svg="http://www.w3.org/2000/svg">
  <sodipodi:namedview
     id="namedview448"
     pagecolor="#ffffff"
     bordercolor="#000000"
     borderopacity="0.25"
     inkscape:showpageshadow="2"
     inkscape:pageopacity="0.0"
     inkscape:pagecheckerboard="0"
     inkscape:deskcolor="#d1d1d1"
     inkscape:document-units="mm"
     showgrid="false"
     inkscape:zoom="0.50422278"
     inkscape:cx="-134.86102"
     inkscape:cy="561.25985"
     inkscape:window-width="1366"
     inkscape:window-height="744"
     inkscape:window-x="0"
     inkscape:window-y="0"
     inkscape:window-maximized="1"
     inkscape:current-layer="layer1" />
  <defs
     id="defs443" />
  <g
     inkscape:label="Layer 1"
     inkscape:groupmode="layer"
     id="layer1">
    <g
       id="g19787"
       transform="matrix(0.35,0,0,0.35,-26.51543,41.437751)">
      <rect
         style="fill:#008033;fill-opacity:1;fill-rule:evenodd;stroke-width:0.242487"
         id="rect15694-2-0-9"
         width="60"
         height="60"
         x="75.996468"
         y="-118.15548"
         ry="13.490163" />
      <path
         style="fill:#2aff80;stroke-width:0.303009"
         d="m 93.269298,-66.395002 c -5.864073,-2.411944 -9.948024,-8.575334 -9.948024,-15.013297 0,-1.3038 0.08119,-2.776499 0.18042,-3.272647 l 0.180419,-0.902099 1.561883,0.832789 c 0.859036,0.458036 2.925423,1.130355 4.591974,1.494046 7.380992,1.610756 10.71083,3.197177 12.55515,5.981589 0.97722,1.475321 2.07964,4.490486 1.75907,4.81107 -0.10285,0.102842 -1.26782,0.179985 -2.58872,0.171316 -2.57824,-0.01695 -5.872691,-0.656997 -7.372021,-1.43233 -1.41081,-0.729558 -1.355898,-0.318489 0.100528,0.752578 2.62274,1.928787 7.399263,2.797857 11.116963,2.022696 2.2848,-0.476394 6.13839,-2.077576 6.73751,-2.799461 0.63957,-0.770626 1.17473,-0.467472 1.17473,0.665437 0,0.752497 -0.2234,1.28204 -0.74467,1.765145 -0.99885,0.925701 -4.55647,2.291464 -7.08585,2.720255 -1.46641,0.248592 -2.34146,0.589989 -3.05721,1.192768 -1.52649,1.285519 -2.8947,1.731851 -5.284518,1.723892 -1.556348,-0.0052 -2.639782,-0.204607 -3.877639,-0.713747 z m 24.533032,-0.566849 c 0.0574,-0.787829 -0.2195,-2.287707 -0.71331,-3.863366 -2.67801,-8.545097 -2.97197,-11.622414 -1.42519,-14.919477 1.09423,-2.332447 2.98321,-4.349119 3.59675,-3.839915 0.22748,0.18878 0.87048,1.256525 1.42891,2.372759 0.89021,1.779415 1.3657,3.252331 2.20869,6.841852 l 0.21349,0.909027 0.23296,-1.212032 c 0.6523,-3.393847 -1.45773,-8.846774 -4.63262,-11.971973 -1.51085,-1.487209 -4.67473,-3.633005 -5.35672,-3.633005 -0.56004,0 -0.3823,-0.864593 0.24698,-1.201371 0.32235,-0.172518 0.97186,-0.313667 1.44334,-0.313667 1.46539,0 5.09003,2.796242 7.18503,5.54293 0.49378,0.647377 1.24238,1.164426 2.02565,1.399095 1.68555,0.505013 3.6945,2.432448 4.53608,4.352016 1.49526,3.410602 1.06607,8.798193 -1.01929,12.795176 -1.32799,2.545346 -4.68225,5.804257 -7.25106,7.04496 -2.68027,1.294538 -2.8349,1.277311 -2.71969,-0.303009 z M 93.461559,-86.280353 c -1.261977,-0.47802 -1.444561,-1.052594 -1.276812,-4.017941 0.110251,-1.94892 0.398446,-3.452552 0.949632,-4.954602 0.659017,-1.795906 0.759618,-2.460072 0.601613,-3.971788 -0.263442,-2.520466 0.434894,-4.486906 2.329676,-6.560096 3.678932,-4.02533 10.297772,-5.63209 16.158222,-3.92249 1.92292,0.56095 4.9509,2.21748 5.89498,3.22497 l 0.70907,0.7567 -1.10145,0.52267 c -0.60579,0.28748 -2.608,2.13023 -4.44934,4.095 -5.24169,5.593073 -7.87325,7.216232 -11.74019,7.241428 -2.12198,0.01386 -4.278888,-0.500947 -4.274428,-1.02015 0.008,-0.901056 2.171028,-3.931782 4.407998,-6.175518 2.40477,-2.41204 2.46316,-2.749 0.28579,-1.64901 -1.57234,0.79435 -4.782868,4.33762 -5.831132,6.4355 -1.21051,2.422577 -2.026121,6.220622 -1.802055,8.391602 0.179889,1.742962 0.06595,1.955047 -0.861574,1.603725 z"
         id="path19707" />
    </g>
  </g>
</svg>
