<?xml version="1.0" encoding="UTF-8" standalone="no"?>
<!-- Created with Inkscape (http://www.inkscape.org/) -->

<svg
   width="80"
   height="80"
   viewBox="0 0 21.166666 21.166666"
   version="1.1"
   id="svg446"
   inkscape:version="1.2.2 (b0a8486541, 2022-12-01)"
   sodipodi:docname="eixo-5.svg"
   xmlns:inkscape="http://www.inkscape.org/namespaces/inkscape"
   xmlns:sodipodi="http://sodipodi.sourceforge.net/DTD/sodipodi-0.dtd"
   xmlns="http://www.w3.org/2000/svg"
   xmlns:svg="http://www.w3.org/2000/svg">
  <sodipodi:namedview
     id="namedview448"
     pagecolor="#ffffff"
     bordercolor="#000000"
     borderopacity="0.25"
     inkscape:showpageshadow="2"
     inkscape:pageopacity="0.0"
     inkscape:pagecheckerboard="0"
     inkscape:deskcolor="#d1d1d1"
     inkscape:document-units="mm"
     showgrid="false"
     inkscape:zoom="0.50422278"
     inkscape:cx="-134.86102"
     inkscape:cy="561.25985"
     inkscape:window-width="1366"
     inkscape:window-height="744"
     inkscape:window-x="0"
     inkscape:window-y="0"
     inkscape:window-maximized="1"
     inkscape:current-layer="layer1" />
  <defs
     id="defs443" />
  <g
     inkscape:label="Layer 1"
     inkscape:groupmode="layer"
     id="layer1">
    <g
       id="g19875"
       transform="matrix(0.35,0,0,0.35,48.784037,82.209656)">
      <rect
         style="fill:#806600;fill-opacity:1;fill-rule:evenodd;stroke-width:0.242487"
         id="rect15694-2-0-9-6"
         width="60"
         height="60"
         x="-139.14487"
         y="-234.64664"
         ry="13.490163" />
      <g
         id="path19757-0"
         transform="translate(-123.06276,79.023812)"
         style="fill:#ffd42a">
        <path
           style="color:#000000;fill:#ffd42a;stroke-width:2;-inkscape-stroke:none"
           d="m 32.48202,-262.01656 c -0.650944,-0.17189 -1.113676,-0.58903 -5.150432,-4.64304 -3.771403,-3.78753 -4.206375,-4.25313 -4.334184,-4.63938 -0.161382,-0.48771 -0.182821,-1.08497 -0.05495,-1.53081 0.08639,-0.30124 0.08114,-0.3097 -0.638705,-1.02954 l -0.725809,-0.72581 -0.47207,0.40643 c -1.1254,0.96897 -3.2902,2.26073 -4.87159,2.90696 -3.59312,1.46828 -8.0173,1.71822 -11.7611,0.66443 -3.97714,-1.11949 -7.34244,-3.42114 -9.78795,-6.69435 -1.79368,-2.40077 -2.92295,-5.13289 -3.42364,-8.28303 -0.19202,-1.20817 -0.18901,-4.1236 0.006,-5.35969 0.51438,-3.26816 1.86318,-6.34425 3.86092,-8.80529 0.64013,-0.78859 2.03437,-2.17684 2.81117,-2.79913 2.42095,-1.93934 5.49852,-3.27618 8.71817,-3.78701 1.22297,-0.19403 4.13815,-0.19579 5.3597,-0.003 6.1357,0.96719 11.115089,4.59821 13.755375,10.03059 1.209711,2.48897 1.746262,4.63273 1.847269,7.38063 0.118709,3.22958 -0.515021,6.15639 -1.948246,8.99779 -0.465015,0.9219 -1.669971,2.7623 -2.248403,3.43412 l -0.406447,0.47207 0.73009,0.73009 c 0.691733,0.69174 0.742717,0.72529 0.97045,0.63871 0.347485,-0.13212 0.997062,-0.11231 1.541776,0.047 0.454241,0.13285 0.64177,0.30639 4.683372,4.33419 3.090787,3.08021 4.270692,4.3116 4.437767,4.63138 0.184651,0.35342 0.228348,0.55886 0.231628,1.08899 0.0066,1.05973 -0.478495,1.86783 -1.388353,2.31298 -0.499614,0.24444 -1.282506,0.34513 -1.741353,0.22396 z m -20.99575,-11.17062 c 3.17637,-0.40769 6.25913,-1.94887 8.61931,-4.30903 2.907757,-2.90777 4.434328,-6.60987 4.434328,-10.75374 0,-2.33481 -0.435562,-4.33056 -1.406983,-6.44682 -1.433925,-3.12385 -4.253865,-5.9185 -7.421365,-7.35485 -2.07632,-0.94153 -4.03355,-1.35708 -6.39178,-1.35708 -4.09517,0 -7.7633,1.52355 -10.68983,4.44002 -2.90527,2.89529 -4.43542,6.58486 -4.43651,10.69753 -9.9e-4,4.14865 1.49236,7.80635 4.37819,10.72288 2.65734,2.68559 5.78194,4.10849 9.86547,4.49258 0.5041,0.0474 2.23785,-0.0273 3.04917,-0.13149 z m -15.00013,-14.54005 c 0.15697,-3.54987 1.5328,-6.63326 4.13349,-9.26361 2.48969,-2.51807 5.7122,-3.9893 9.03714,-4.12587 0.67081,-0.0276 1.20007,-0.0296 1.17611,-0.005 -0.024,0.025 -0.38938,0.18804 -0.81205,0.36222 -4.50838,1.85802 -8.63384,5.38081 -11.2811,9.6331 -0.64139,1.03026 -1.54267,2.79611 -1.9348,3.7908 -0.15112,0.38332 -0.29637,0.71654 -0.32278,0.7405 -0.0264,0.024 -0.0246,-0.48569 0.004,-1.13255 z"
           id="path19817" />
        <path
           style="color:#000000;fill:#ffd42a;-inkscape-stroke:none"
           d="m 12.173828,-307.32617 c -1.46447,-0.23113 -4.2069367,-0.23047 -5.6718749,0.002 -3.3889178,0.53769 -6.61881881,1.93646 -9.1875,3.99414 -0.8874971,0.71097 -2.236899,2.05486 -2.9628906,2.94922 -2.1159023,2.60661 -3.5311262,5.84307 -4.0722656,9.28125 -0.2324819,1.47361 -0.2372778,4.21582 -0.00586,5.67188 0.5232092,3.29182 1.7203755,6.19364 3.6113281,8.72461 2.5742547,3.44552 6.13873206,5.8821 10.3183594,7.05859 3.9812814,1.12063 8.5877466,0.8608 12.4101556,-0.70117 1.71753,-0.70187 3.871637,-1.98021 5.144531,-3.07617 v 0.002 l -0.230468,0.19726 0.06836,0.0703 c 0.296611,0.29661 0.376182,0.39344 0.396484,0.40625 -0.100849,0.58814 -0.134037,1.18547 0.05664,1.76172 0.132545,0.40056 0.401201,0.75023 1.019531,1.4121 0.61833,0.66187 1.668095,1.72448 3.554688,3.61915 2.019756,2.02838 3.142735,3.14552 3.884765,3.81445 0.742031,0.66893 1.256766,0.96785 1.71875,1.08984 0.862562,0.22778 1.664831,0.0851 2.4375,-0.29297 1.212962,-0.59344 1.955786,-1.84875 1.947266,-3.21679 -0.0036,-0.58348 -0.11543,-1.10988 -0.34375,-1.54688 -0.143495,-0.27465 -0.262969,-0.39253 -0.462891,-0.62109 -0.199921,-0.22857 -0.467399,-0.51629 -0.824218,-0.88867 -0.713639,-0.74478 -1.784512,-1.82497 -3.332032,-3.36719 -2.02119,-2.01429 -3.072912,-3.06008 -3.71289,-3.65235 -0.319989,-0.29613 -0.537059,-0.48401 -0.759766,-0.63476 -0.222707,-0.15075 -0.4827,-0.25436 -0.634765,-0.29883 -0.553171,-0.16178 -1.097698,-0.10575 -1.654297,-0.0156 -0.01586,-0.0197 -0.136378,-0.12075 -0.431641,-0.41602 l -0.07422,-0.0742 -0.199218,0.23047 c 0.719582,-0.83576 1.845976,-2.57048 2.382812,-3.63477 1.504198,-2.9821 2.17901,-6.10403 2.054688,-9.48632 -0.105081,-2.85873 -0.689691,-5.1938 -1.947266,-7.78125 -2.77978,-5.71939 -8.064292,-9.56591 -14.498047,-10.58008 z m 20.052734,46.27734 -0.210937,-0.084 0.101562,0.0547 z m -20.365234,-44.30273 c 5.837633,0.9202 10.510932,4.3351 13.011719,9.48047 1.161844,2.39048 1.651114,4.3434 1.748047,6.98047 0.113095,3.07686 -0.479548,5.80907 -1.841797,8.50976 -0.393193,0.77951 -1.676001,2.72454 -2.113281,3.23242 l -1.011719,1.17578 1.386719,1.38672 c 0.348836,0.34884 0.508816,0.53584 0.816406,0.73828 0.153795,0.10122 0.402786,0.21652 0.671875,0.22657 0.269089,0.01 0.454398,-0.0659 0.542969,-0.0996 -0.07052,0.0268 0.545678,-0.0332 0.90625,0.0723 0.07505,0.022 0.0097,-0.01 0.07617,0.0352 0.06651,0.045 0.232612,0.17798 0.521485,0.44531 0.577745,0.53467 1.639748,1.59001 3.660156,3.60352 1.543264,1.53798 2.60805,2.61306 3.298828,3.33398 0.345389,0.36046 0.598785,0.6318 0.763672,0.82031 0.164888,0.18852 0.25527,0.34523 0.195313,0.23047 0.140982,0.26984 0.114237,0.15604 0.117187,0.63282 0.0047,0.75141 -0.219419,1.11134 -0.826172,1.4082 -0.22573,0.11044 -0.982893,0.17022 -1.042969,0.15625 l -0.0039,-0.002 c -0.188959,-0.0499 -0.231319,-0.0445 -0.892578,-0.64063 -0.661259,-0.59611 -1.787691,-1.71462 -3.804687,-3.74023 -1.884807,-1.89287 -2.937761,-2.9579 -3.511719,-3.57227 -0.573958,-0.61437 -0.586767,-0.69009 -0.582031,-0.67578 -0.09319,-0.28163 -0.09742,-0.75154 -0.04297,-0.94141 0.02268,-0.0791 0.07434,-0.21146 0.07617,-0.45508 0.0018,-0.24361 -0.09802,-0.5325 -0.205078,-0.70507 -0.214117,-0.34514 -0.403225,-0.49112 -0.763672,-0.85157 l -1.382813,-1.38281 -1.175781,1.01172 v 0.002 c -0.977903,0.84198 -3.15241,2.14769 -4.597656,2.73828 -3.363824,1.37459 -7.6050173,1.6139 -11.1113284,0.62696 -3.77464468,-1.06249 -6.941052,-3.2292 -9.2578125,-6.33008 -1.6964037,-2.27057 -2.7581583,-4.83335 -3.2363281,-7.8418 -0.1526212,-0.96027 -0.1516784,-4.0483 0.00586,-5.04687 0.4876195,-3.09814 1.7688638,-6.01461 3.6484375,-8.33008 0.5542671,-0.68281 1.9940549,-2.11483 2.6601562,-2.64844 2.27321402,-1.82099 5.1996242,-3.0961 8.25,-3.58008 0.9809994,-0.15564 4.0682483,-0.15835 5.0468753,-0.004 z m -2.5410155,0.94336 c -4.3431895,0 -8.2973612,1.642 -11.3964844,4.73047 -3.0817926,3.0712 -4.729313,7.0457 -4.7304687,11.40625 -0.00105,4.38876 1.6094423,8.33471 4.6679687,11.42578 2.80878751,2.83864 6.2169969,4.38395 10.4824219,4.78515 0.814361,0.0766 2.339588,-0.0153 3.269531,-0.13476 3.410968,-0.4378 6.68509,-2.07965 9.199219,-4.59375 3.0841,-3.08412 4.726562,-7.07148 4.726562,-11.46094 0,-2.45918 -0.474465,-4.63339 -1.498046,-6.86328 -1.546957,-3.37009 -4.507505,-6.30397 -7.916016,-7.84961 -2.190794,-0.99344 -4.328985,-1.44531 -6.8046875,-1.44531 z m 0,2 c 2.2407525,0 4.0166745,0.37796 5.9785155,1.26758 2.926483,1.32705 5.604891,3.98372 6.925781,6.86132 0.919259,2.00263 1.314453,3.81886 1.314453,6.0293 0,3.89827 -1.409216,7.31545 -4.140625,10.04688 -2.206226,2.2062 -5.097296,3.64585 -8.039062,4.02343 -0.692695,0.089 -2.634287,0.14714 -2.828125,0.12891 -3.9016268,-0.36698 -6.7421597,-1.66865 -9.24804687,-4.20117 -2.71312783,-2.74199 -4.09077643,-6.111 -4.08984373,-10.01953 0.00102,-3.86479 1.4138365,-7.26892 4.1425781,-9.98829 2.753931,-2.74446 6.1372327,-4.14843 9.984375,-4.14843 z m 1.1816405,0.26953 c -0.232462,9.5e-4 -0.5415119,0.009 -0.8867186,0.0234 -3.5927079,0.14756 -7.05094,1.7355 -9.70703127,4.42187 -2.75142173,2.7828 -4.25464223,6.13991 -4.42187503,9.92188 -3.362e-4,0.008 3.292e-4,0.012 0,0.0195 -0.014134,0.32484 -0.022655,0.6164 -0.023437,0.83789 -4.002e-4,0.11332 4.925e-4,0.2063 0.00586,0.30078 0.00268,0.0472 0.00196,0.0835 0.021484,0.1875 0.00976,0.052 -0.00499,0.10168 0.1132812,0.31445 0.029568,0.0532 0.1480663,0.20273 0.1484375,0.20313 3.713e-4,3.9e-4 0.3863338,0.25376 0.3867188,0.2539 3.85e-4,1.4e-4 0.620695,0.0196 0.6210937,0.0195 3.988e-4,-1.1e-4 0.3941188,-0.22032 0.3945313,-0.2207 0.2575232,-0.23415 0.1941484,-0.23488 0.2167968,-0.27539 0.022748,-0.0407 0.035862,-0.0688 0.050781,-0.0996 0.029839,-0.0615 0.059216,-0.12643 0.091797,-0.20117 0.065161,-0.14949 0.1413114,-0.33573 0.2207031,-0.53711 0.3484871,-0.88398 1.2609392,-2.67706 1.85351562,-3.62891 2.53186858,-4.06693 6.51907818,-7.46609 10.81445388,-9.23632 0.219106,-0.0903 0.422488,-0.17883 0.582031,-0.25 0.07977,-0.0356 0.147471,-0.0658 0.208984,-0.0957 0.03076,-0.015 0.0582,-0.0283 0.0957,-0.0488 0.03658,-0.0201 0.02538,0.0461 0.259765,-0.19531 l 0.002,-0.004 c 0.0053,-0.007 0.126836,-0.15802 0.126953,-0.15821 1.2e-4,-1.9e-4 0.117135,-0.26348 0.117188,-0.26367 5.3e-5,-1.9e-4 0.03517,-0.34747 0.03516,-0.34766 -1.4e-5,-1.8e-4 -0.0839,-0.3338 -0.08398,-0.33398 -1.6e-4,-3.6e-4 -0.278875,-0.36684 -0.279297,-0.36719 -4.22e-4,-3.4e-4 -0.147318,-0.10257 -0.197266,-0.12695 -0.19979,-0.0975 -0.241548,-0.0819 -0.289062,-0.0898 -0.09503,-0.0158 -0.13148,-0.0172 -0.177735,-0.0195 -0.09251,-0.005 -0.18455,-0.004 -0.300781,-0.004 z m -7.8828124,4.94531 c -0.7502709,0.66994 -1.4718255,1.373 -2.14062497,2.125 0.31874096,-0.3949 0.4770402,-0.83996 0.85156247,-1.21875 0.3830388,-0.3874 0.8726187,-0.574 1.2890625,-0.90625 z m 21.9863284,21.57227 c 0.05893,0.002 0.06933,0.0215 0.11914,0.0351 -0.123618,0.0281 -0.235698,-0.0524 -0.363281,-0.004 -0.02529,0.01 0.07028,-0.0378 0.244141,-0.0312 z m -2.625,2.51562 c -0.0089,0.031 0.01187,0.0626 0.0039,0.0937 -1.15e-4,-0.005 -0.0039,-0.007 -0.0039,-0.0117 0.001,-0.13481 0.02051,-0.15357 0,-0.082 z"
           id="path19819" />
      </g>
    </g>
  </g>
</svg>
