<?xml version="1.0" encoding="UTF-8" standalone="no"?>
<!-- Created with Inkscape (http://www.inkscape.org/) -->

<svg
   width="80"
   height="80"
   viewBox="0 0 21.166666 21.166666"
   version="1.1"
   id="svg446"
   inkscape:version="1.2.2 (b0a8486541, 2022-12-01)"
   sodipodi:docname="eixo-2.svg"
   xmlns:inkscape="http://www.inkscape.org/namespaces/inkscape"
   xmlns:sodipodi="http://sodipodi.sourceforge.net/DTD/sodipodi-0.dtd"
   xmlns="http://www.w3.org/2000/svg"
   xmlns:svg="http://www.w3.org/2000/svg">
  <sodipodi:namedview
     id="namedview448"
     pagecolor="#ffffff"
     bordercolor="#000000"
     borderopacity="0.25"
     inkscape:showpageshadow="2"
     inkscape:pageopacity="0.0"
     inkscape:pagecheckerboard="0"
     inkscape:deskcolor="#d1d1d1"
     inkscape:document-units="mm"
     showgrid="false"
     inkscape:zoom="0.50422278"
     inkscape:cx="-134.86102"
     inkscape:cy="402.59982"
     inkscape:window-width="1366"
     inkscape:window-height="744"
     inkscape:window-x="0"
     inkscape:window-y="0"
     inkscape:window-maximized="1"
     inkscape:current-layer="layer1" />
  <defs
     id="defs443" />
  <g
     inkscape:label="Layer 1"
     inkscape:groupmode="layer"
     id="layer1">
    <g
       id="g18949"
       transform="matrix(0.35,0,0,0.35,3.7620327,27.673986)">
      <rect
         style="fill:#ff6600;fill-opacity:1;fill-rule:evenodd;stroke-width:0.242487"
         id="rect15694-2"
         width="60"
         height="60"
         x="-10.51057"
         y="-78.830437"
         ry="13.490163" />
      <path
         style="fill:#ffccaa;stroke-width:0.33482"
         d="m -6.31444,-31.352713 c 0,-0.257305 2.6812705,-1.178509 6.52900707,-2.243169 l 3.34820833,-0.926443 -0.054997,-2.006705 c -0.077687,-2.834212 -2.2132358,-8.979437 -5.0624904,-14.567736 -0.070423,-0.138114 0.036838,-0.251115 0.2383592,-0.251115 0.2015151,0 1.54917047,1.13002 2.9947893,2.511157 2.6790296,2.559528 3.3507896,3.017546 2.7331776,1.863526 -0.71619,-1.338213 -0.411704,-2.974194 0.799544,-4.295895 1.039499,-1.13429 1.306705,-1.250661 2.871704,-1.250661 1.565001,0 1.832206,0.116372 2.8717059,1.250661 0.940155,1.025887 1.146145,1.51422 1.146145,2.717119 0,0.94885 -0.231332,1.76055 -0.655401,2.299666 l -0.6554,0.833207 1.026527,0.969756 c 0.564591,0.533365 1.76809,2.062051 2.674443,3.397079 0.906354,1.335027 2.118624,2.963429 2.693934,3.61867 l 1.046018,1.19135 -0.97243,-0.215293 c -0.534836,-0.11841 -1.540489,-0.428458 -2.234784,-0.688991 -1.622785,-0.608946 -1.583623,-0.617932 -1.583623,0.363358 v 0.837051 h 6.361596 6.361597 v -0.837051 c 0,-0.98129 0.03917,-0.972304 -1.583623,-0.363358 -0.694295,0.260533 -1.699948,0.570579 -2.234785,0.688991 l -0.97243,0.215293 1.046018,-1.19135 c 0.575311,-0.655241 1.787581,-2.283643 2.693935,-3.61867 0.906352,-1.335028 2.109853,-2.863714 2.674442,-3.397079 l 1.026527,-0.969756 -0.655399,-0.833207 c -0.42407,-0.539116 -0.655402,-1.350816 -0.655402,-2.299666 0,-1.202899 0.205992,-1.691232 1.146145,-2.717119 1.034101,-1.128401 1.311689,-1.250661 2.83954,-1.250661 1.466505,0 1.840051,0.146761 2.788,1.09537 0.99295,0.993644 1.093555,1.278972 1.083285,3.072362 l -0.01126,1.976991 2.602513,-2.486425 c 2.247826,-2.147559 3.609794,-3.092568 3.221576,-2.23531 -0.06254,0.138114 -0.690173,1.456472 -1.394727,2.929683 -1.974094,4.127803 -3.618704,9.325978 -3.682079,11.638053 l -0.055,2.006705 3.348209,0.926443 c 3.830551,1.059905 6.62488,2.018167 6.43596,2.20709 -0.07115,0.07113 -1.623666,-0.09062 -3.450061,-0.359468 -14.141133,-2.081558 -36.2547359,-1.913505 -47.6321708,0.361982 -0.5812293,0.116246 -1.0567808,0.13135 -1.0567808,0.03356 z m 21.763357,-17.484011 v -1.841516 h 1.841515 1.841514 v 1.841516 1.841514 h -1.841514 -1.841515 z m 5.022312,0 v -1.841516 h 1.841516 1.841514 v 1.841516 1.841514 h -1.841514 -1.841516 z m -25.7110414,-5.239621 0.097251,-2.728465 12.3233905,-7.483573 c 6.7778659,-4.115965 12.4632189,-7.483572 12.6341189,-7.483572 0.170901,0 4.192879,2.359679 8.937733,5.243733 4.744854,2.884053 10.284371,6.250309 12.310037,7.480569 l 3.68303,2.236836 0.09724,2.731467 c 0.05349,1.502308 0.01644,2.731469 -0.08232,2.731469 -0.09876,0 -5.751442,-3.387546 -12.561515,-7.527881 l -12.381951,-7.527882 -12.3984209,7.527882 c -6.81913183,4.140335 -12.4788406,7.527881 -12.5771317,7.527881 -0.098289,0 -0.1349492,-1.227809 -0.081458,-2.728464 z m 20.9119444,2.170429 c -0.122763,-0.122763 -0.223215,-1.026785 -0.223215,-2.008926 v -1.785711 h 1.841515 1.841514 v 2.008925 2.008926 h -1.6183 c -0.890066,0 -1.718748,-0.10044 -1.841514,-0.223214 z m 4.799097,-1.768214 v -2.026423 h 1.858223 1.858226 l -0.100415,1.92522 -0.100414,1.925221 -1.757809,0.101199 -1.757811,0.101199 z"
         id="path18557" />
    </g>
  </g>
</svg>
