<?xml version="1.0" encoding="UTF-8" standalone="no"?>
<!-- Created with Inkscape (http://www.inkscape.org/) -->

<svg
   width="80"
   height="80"
   viewBox="0 0 21.166666 21.166666"
   version="1.1"
   id="svg446"
   inkscape:version="1.2.2 (b0a8486541, 2022-12-01)"
   sodipodi:docname="eixo-3.svg"
   xmlns:inkscape="http://www.inkscape.org/namespaces/inkscape"
   xmlns:sodipodi="http://sodipodi.sourceforge.net/DTD/sodipodi-0.dtd"
   xmlns="http://www.w3.org/2000/svg"
   xmlns:svg="http://www.w3.org/2000/svg">
  <sodipodi:namedview
     id="namedview448"
     pagecolor="#ffffff"
     bordercolor="#000000"
     borderopacity="0.25"
     inkscape:showpageshadow="2"
     inkscape:pageopacity="0.0"
     inkscape:pagecheckerboard="0"
     inkscape:deskcolor="#d1d1d1"
     inkscape:document-units="mm"
     showgrid="false"
     inkscape:zoom="0.50422278"
     inkscape:cx="-134.86102"
     inkscape:cy="561.25985"
     inkscape:window-width="1366"
     inkscape:window-height="744"
     inkscape:window-x="0"
     inkscape:window-y="0"
     inkscape:window-maximized="1"
     inkscape:current-layer="layer1" />
  <defs
     id="defs443" />
  <g
     inkscape:label="Layer 1"
     inkscape:groupmode="layer"
     id="layer1">
    <g
       id="g19737"
       transform="matrix(0.35,0,0,0.35,10.950647,55.395702)">
      <rect
         style="fill:#0000d4;fill-opacity:1;fill-rule:evenodd;stroke-width:0.242487"
         id="rect15694-2-0"
         width="60"
         height="60"
         x="-31.049469"
         y="-158.03534"
         ry="13.490163" />
      <path
         style="fill:#00bcdb;fill-opacity:1;stroke-width:0.0636471"
         d="m 3.0270141,-102.52196 c -0.00391,-0.13351 0.1624579,-0.34076 0.2109449,-0.26232 0.02157,0.0349 -6.97e-5,0.0868 -0.048173,0.1152 -0.048099,0.0284 -0.1037318,0.0946 -0.1236076,0.14712 -0.032122,0.0848 -0.036459,0.0848 -0.039098,0 z m -0.3271434,-0.4796 c -0.043909,-0.053 -0.061522,-0.1147 -0.039024,-0.1372 0.022498,-0.0225 0.040881,-0.009 0.040881,0.0287 0,0.0382 0.050115,0.0796 0.1113877,0.0917 0.072928,0.0145 0.086405,0.0378 0.039023,0.0676 -0.039793,0.0251 -0.1083158,0.002 -0.1522714,-0.0508 z m 0.4592838,-0.31599 c -0.076105,-0.0875 -0.1131879,-0.15912 -0.082447,-0.15912 0.030718,0 0.1028242,0.0715 0.1601616,0.15912 0.057332,0.0875 0.094445,0.15911 0.082447,0.15911 -0.01203,0 -0.084072,-0.0717 -0.16017,-0.15911 z m -0.2664841,-4.46664 c -2.32865613,-0.16997 -4.9772556,-0.7905 -7.2925215,-1.70854 -1.2270541,-0.48655 -2.4455289,-1.04637 -2.4455289,-1.12359 0,-0.0693 2.7281574,-8.02095 2.7643875,-8.05716 0.014425,-0.0145 0.2217982,0.0875 0.4607971,0.22641 6.4161166,3.73084 13.8568914,2.91095 16.7035044,-1.84052 1.058521,-1.76685 1.378877,-4.04105 0.88683,-6.29552 -0.293838,-1.34629 -1.074929,-3.17072 -1.876663,-4.3834 -0.194599,-0.29435 -0.353831,-0.55498 -0.353831,-0.57918 0,-0.0242 0.173692,-0.19509 0.38598,-0.37972 l 0.385979,-0.33572 0.983239,-0.20694 0.983231,-0.20695 0.305785,0.38991 c 2.052327,2.61693 3.53485,5.71252 4.114825,8.59198 0.237865,1.18096 0.30895,1.8818 0.310734,3.06351 0.0023,1.60325 -0.193459,2.84138 -0.66663,4.21363 -1.680682,4.87415 -6.183417,8.04723 -12.2131661,8.60661 -0.6648531,0.0617 -2.7297245,0.0769 -3.4369515,0.0252 z m -17.0569704,-4.48021 -4.228547,-3.31123 -4.088555,-13.88805 c -3.034099,-10.30625 -4.089338,-13.97361 -4.091597,-14.2198 -0.0062,-0.68804 0.456089,-1.4292 1.054596,-1.69036 0.266687,-0.11638 6.332083,-1.90837 6.357965,-1.87845 0.0087,0.01 1.651078,5.5888 3.649969,12.39749 1.99888,6.80868 3.69937,12.50769 3.77885,12.66448 0.424939,0.83825 1.583422,0.84013 2.0062053,0.003 0.078764,-0.1559 0.1432111,-0.37904 0.1432111,-0.49582 0,-0.11678 -1.0761004,-3.86989 -2.3913314,-8.34022 -1.315231,-4.47034 -2.458236,-8.35701 -2.540013,-8.63706 -0.08177,-0.28005 -0.652549,-2.22109 -1.268389,-4.31342 -0.615846,-2.09233 -1.119715,-3.84486 -1.119715,-3.8945 0,-0.1151 0.480959,-0.19216 0.846257,-0.13561 0.615288,0.0953 1.248629,0.57256 1.446138,1.08977 0.03965,0.10394 0.399858,1.30592 0.8004,2.67116 0.400533,1.36523 0.826474,2.81161 0.94652,3.21417 0.120047,0.40258 1.35302,4.59853 2.739942,9.32435 1.3869217,4.7258 2.7798485,9.46565 3.0953936,10.53294 0.3155462,1.06731 0.5768015,1.98384 0.5805793,2.03671 0.00623,0.088 -3.3493803,9.92401 -3.4468513,10.10331 -0.027932,0.0514 -1.4905196,-1.05576 -4.2710276,-3.23309 z m 2.951832,-1.59515 c 1.046203,-0.30832 1.9073474,-0.56861 1.9136621,-0.57844 0.060508,-0.094 1.483617,-4.22307 1.4627324,-4.24395 -0.05252,-0.0525 -2.9872185,-0.82135 -3.0314995,-0.79416 -0.02436,0.015 -0.362435,0.48395 -0.751356,1.0423 -0.388903,0.55834 -0.731058,1.02998 -0.760344,1.04806 -0.02925,0.0181 -0.606468,-0.19618 -1.282648,-0.47619 -0.975837,-0.40411 -1.244758,-0.49262 -1.303873,-0.4291 -0.716352,0.76953 -1.998665,2.30112 -1.958014,2.33864 0.02972,0.0274 0.837879,0.65545 1.795982,1.39564 1.415796,1.09379 1.767385,1.33755 1.877594,1.30179 0.07455,-0.0242 0.991571,-0.29627 2.037764,-0.60459 z M 4.2461317,-123.9095 c -3.99591715,-0.42003 -7.5853818,-3.84278 -7.607081,-7.25375 -0.00538,-0.77906 0.094445,-1.2439 0.4047618,-1.89272 0.7797791,-1.63039 2.58088888,-2.52937 4.8261311,-2.40884 0.4001693,0.0215 0.7404392,0.052 0.7561487,0.0676 0.01567,0.0158 -0.3180745,0.4028 -0.7417582,0.86018 -1.25837305,1.35846 -1.56968238,2.04051 -1.56897633,3.4374 4.8118e-4,0.90116 0.11381571,1.35619 0.52324815,2.10036 0.31326468,0.56935 1.12814908,1.36583 1.70687428,1.6683 0.93095,0.48656 2.1891606,0.64904 3.1158516,0.4024 0.9209186,-0.24513 1.2830038,-0.48373 2.9689785,-1.95647 0.5127517,-0.44789 0.9472335,-0.81435 0.965519,-0.81435 0.088802,0 0.2343983,0.95419 0.2343983,1.53604 0,0.80178 -0.1219555,1.32484 -0.4632256,1.98669 -0.6476306,1.25602 -2.0227145,2.09161 -3.7283319,2.26559 -0.7143405,0.0729 -0.7140387,0.0729 -1.3925384,9.3e-4 z m -0.223855,-5.55857 c -0.4650708,-0.17351 -0.8803989,-0.5838 -1.0716938,-1.05872 -0.049344,-0.12253 -0.088188,-0.41105 -0.086299,-0.64118 0.00306,-0.34262 0.037388,-0.47788 0.1909456,-0.74663 0.1118298,-0.19576 1.2089933,-1.40732 2.7185757,-3.00205 1.3920974,-1.4706 2.5590123,-2.73852 2.593162,-2.8176 0.034137,-0.0792 0.2221175,-0.77392 0.4177334,-1.54404 l 0.3556533,-1.40025 3.8614491,-6.75884 c 2.123799,-3.71737 3.878974,-6.73903 3.900379,-6.7148 0.02141,0.0242 0.18785,1.01787 0.369881,2.20807 0.749633,4.90155 1.150779,7.43636 1.181734,7.4673 0.02909,0.0291 2.480679,0.49972 8.06794,1.54876 0.971415,0.1824 1.765911,0.34784 1.765539,0.36768 -4.81e-4,0.0199 -1.095907,0.60188 -2.434512,1.29342 -1.338606,0.69156 -4.505071,2.32934 -7.03658,3.63951 l -4.602757,2.38213 -1.441181,0.30365 -1.441189,0.30364 -1.14821,0.9976 c -0.6315171,0.54868 -1.892885,1.64713 -2.8030438,2.44099 -0.9101582,0.79385 -1.7795805,1.5179 -1.9320545,1.609 -0.3397665,0.20299 -1.0466675,0.26367 -1.425472,0.12236 z m -13.1124572,-7.02387 c -0.085676,-0.15798 -1.6500075,-5.62755 -1.6185185,-5.65903 0.05958,-0.0596 1.3320731,-0.32169 2.1766708,-0.44836 1.0826095,-0.16236 4.2912223,-0.16124 5.4418462,9.3e-4 3.00851292,0.42659 5.6442573,1.23989 8.3266894,2.56931 0.8671027,0.42974 0.9711985,0.49822 0.937273,0.61662 -0.020946,0.0732 -0.054303,0.2048 -0.074163,0.29232 -0.019786,0.0875 -0.3842962,0.52544 -0.8099732,0.97317 l -0.7739605,0.81405 -0.5091837,-0.2163 c -1.1096768,-0.47138 -2.507251,-0.87645 -3.78701203,-1.09762 -0.92772295,-0.16033 -3.09046837,-0.19446 -4.02892757,-0.0636 -2.0302558,0.28316 -3.4643375,0.8856 -5.083694,2.13565 -0.093601,0.0722 -0.1822652,0.10908 -0.197036,0.0819 z"
         id="path18919"
         sodipodi:nodetypes="cscsccsssscssssssssscssssscccsscsssccssssssssssssssssssssscsssssssssssscssssscssssssssccssssssscssssscsscccssssssscsssscssssss" />
    </g>
  </g>
</svg>
